# xmcd
#
# Track frame offsets:
#	225
#	20364
#	36636
#	54442
#	69358
#	84979
#	103535
#	120300
#	134849
#	150537
#	169915
#	186392
#	204714
#	221376
#	237046
#	259648
#	278161
#	295891
#	313619
#	331787
#
# Disc length: 4652 seconds
#
# Revision: 1
# Processed by: cddbd v1.5.2PL0 Copyright (c) Steve Scherf et al.
# Submitted via: audiograbber 1.83.01
#
DISCID=20122914
DTITLE=Various Artist - R&B and Chill
DYEAR=2016
DGENRE=R&B
TTITLE0=Drake - Hotline Bling
TTITLE1=The Weekend - Can't Feel My Face
TTITLE2=Craig David - Seven Days
TTITLE3=Christina Milan - Dip It Low
TTITLE4=Pia Mia - Do It Again
TTITLE5=Desiigner - Panda
TTITLE6=Ciara - Goodies
TTITLE7=Cassie - Me and U
TTITLE8=Justin Bieber - Company
TTITLE9=Mario - Let Me Love You
TTITLE10=Pussycat Dolls - Don't Cha
TTITLE11=Nelly Furtado - Promiscuous
TTITLE12=Ne-Yo - Sexy Love
TTITLE13=50 Cent - Candy Shop
TTITLE14=Lil Wayne - Lollipop
TTITLE15=LL Cool J - Phenomenom
TTITLE16=Ariana Grande - Dangerous Woman
TTITLE17=Jennifer Lopez - I'm Into You
TTITLE18=Will.I.Am - Boys and Girls
TTITLE19=Sigma and Rita Ora - Coming Home
EXTD=
EXTT0=
EXTT1=
EXTT2=
EXTT3=
EXTT4=
EXTT5=
EXTT6=
EXTT7=
EXTT8=
EXTT9=
EXTT10=
EXTT11=
EXTT12=
EXTT13=
EXTT14=
EXTT15=
EXTT16=
EXTT17=
EXTT18=
EXTT19=
PLAYORDER=
